<svg xmlns="http://www.w3.org/2000/svg" width="1600" height="650" viewBox="0 0 1600 650"><defs><marker id="arrow" viewBox="0 0 10 10" refX="9" refY="5" markerWidth="7" markerHeight="7" orient="auto-start-reverse"><path d="M 0 0 L 10 5 L 0 10 z" fill="#31475b"/></marker></defs><style>.u{fill:#eaf4fb;stroke:#28618a;stroke-width:3}.p{fill:#e8f7ef;stroke:#28744b;stroke-width:3}.a{stroke:#31475b;stroke-width:3;fill:none;marker-end:url(#arrow)}.t{font:700 15px sans-serif;text-anchor:middle}.r{font:12px sans-serif;text-anchor:middle;fill:#41576a}.s{font:14px sans-serif;fill:#334b60}</style><path class="a" d="M 215 125 L 310 125"/><text class="r" x="262" y="113">CO2 feed</text><path class="a" d="M 500 125 L 595 125"/><text class="r" x="548" y="113">cathode gas</text><path class="a" d="M 785 125 L 880 125"/><text class="r" x="832" y="113">product gas</text><path class="a" d="M 975 173 L 975 467 L 405 467 L 405 327"/><text class="r" x="690" y="459">CO product</text><path class="a" d="M 975 173 L 975 467 L 690 467 L 690 327"/><text class="r" x="832" y="459">H2 coproduct</text><path class="a" d="M 1070 125 L 1165 125"/><text class="r" x="1118" y="113">unreacted CO2</text><path class="a" d="M 1355 125 L 310 125"/><text class="r" x="832" y="113">CO2 recycle</text><path class="a" d="M 690 173 L 690 467 L 120 467 L 120 327"/><text class="r" x="405" y="459">carbonate crossover</text><path class="a" d="M 120 423 L 120 467 L 405 467 L 405 173"/><text class="r" x="262" y="459">recovered CO2</text><rect class="p" x="25" y="77" width="190" height="96" rx="16"/><text class="t" x="120" y="118">CO2</text><text class="r" x="120" y="140">Feed</text><text class="r" x="120" y="158">captured CO2</text><rect class="u" x="310" y="77" width="190" height="96" rx="16"/><text class="t" x="405" y="118">M1</text><text class="r" x="405" y="140">Mixer</text><text class="r" x="405" y="158">fresh/recycle gas</text><rect class="u" x="595" y="77" width="190" height="96" rx="16"/><text class="t" x="690" y="118">EC</text><text class="r" x="690" y="140">ElectrochemicalReactor</text><text class="r" x="690" y="158">CO2-to-CO</text><rect class="u" x="880" y="77" width="190" height="96" rx="16"/><text class="t" x="975" y="118">SEP</text><text class="r" x="975" y="140">GasSeparator</text><text class="r" x="975" y="158">CO/H2/CO2 split</text><rect class="u" x="1165" y="77" width="190" height="96" rx="16"/><text class="t" x="1260" y="118">S1</text><text class="r" x="1260" y="140">Separator</text><text class="r" x="1260" y="158">CO2 recycle/purge</text><rect class="u" x="25" y="327" width="190" height="96" rx="16"/><text class="t" x="120" y="368">BMED</text><text class="r" x="120" y="390">BipolarElectrodialysis</text><text class="r" x="120" y="408">carbonate recovery</text><rect class="p" x="310" y="327" width="190" height="96" rx="16"/><text class="t" x="405" y="368">CO</text><text class="r" x="405" y="390">Product</text><text class="r" x="405" y="408">carbon monoxide</text><rect class="p" x="595" y="327" width="190" height="96" rx="16"/><text class="t" x="690" y="368">H2</text><text class="r" x="690" y="390">Product</text><text class="r" x="690" y="408">hydrogen coproduct</text><text class="s" x="24" y="625">Code-derived complete PFD for CO2 Electroreduction with Gas Recycle and Carbonate Recovery; reconstructed from the executable topology and not an official source figure.</text></svg>