<svg xmlns="http://www.w3.org/2000/svg" width="1600" height="650" viewBox="0 0 1600 650"><defs><marker id="arrow" viewBox="0 0 10 10" refX="9" refY="5" markerWidth="7" markerHeight="7" orient="auto-start-reverse"><path d="M 0 0 L 10 5 L 0 10 z" fill="#31475b"/></marker></defs><style>.u{fill:#eaf4fb;stroke:#28618a;stroke-width:3}.p{fill:#e8f7ef;stroke:#28744b;stroke-width:3}.a{stroke:#31475b;stroke-width:3;fill:none;marker-end:url(#arrow)}.t{font:700 15px sans-serif;text-anchor:middle}.r{font:12px sans-serif;text-anchor:middle;fill:#41576a}.s{font:14px sans-serif;fill:#334b60}</style><path class="a" d="M 215 125 L 310 125"/><text class="r" x="262" y="113">contaminated water</text><path class="a" d="M 405 173 L 405 467 L 690 467 L 690 327"/><text class="r" x="548" y="459">treated water</text><path class="a" d="M 500 125 L 595 125"/><text class="r" x="548" y="113">spent GAC</text><path class="a" d="M 785 125 L 880 125"/><text class="r" x="832" y="113">regeneration carbon</text><path class="a" d="M 1070 125 L 1165 125"/><text class="r" x="1118" y="113">bioregenerated slurry</text><path class="a" d="M 1260 173 L 1260 467 L 120 467 L 120 327"/><text class="r" x="690" y="459">regenerated GAC</text><path class="a" d="M 500 375 L 25 375"/><text class="r" x="262" y="363">fresh carbon</text><path class="a" d="M 120 423 L 120 467 L 405 467 L 405 173"/><text class="r" x="262" y="459">active carbon return</text><path class="a" d="M 690 173 L 690 467 L 975 467 L 975 327"/><text class="r" x="832" y="459">carbon purge</text><rect class="p" x="25" y="77" width="190" height="96" rx="16"/><text class="t" x="120" y="118">FEED</text><text class="r" x="120" y="140">Feed</text><text class="r" x="120" y="158">organic-contaminated water</text><rect class="u" x="310" y="77" width="190" height="96" rx="16"/><text class="t" x="405" y="118">GAC</text><text class="r" x="405" y="140">Adsorber</text><text class="r" x="405" y="158">primary carbon bed</text><rect class="u" x="595" y="77" width="190" height="96" rx="16"/><text class="t" x="690" y="118">S101</text><text class="r" x="690" y="140">Separator</text><text class="r" x="690" y="158">spent carbon diversion</text><rect class="u" x="880" y="77" width="190" height="96" rx="16"/><text class="t" x="975" y="118">BIO</text><text class="r" x="975" y="140">Bioregenerator</text><text class="r" x="975" y="158">biodegrade adsorbate</text><rect class="u" x="1165" y="77" width="190" height="96" rx="16"/><text class="t" x="1260" y="118">CF101</text><text class="r" x="1260" y="140">SolidLiquidSeparator</text><text class="r" x="1260" y="158">recover regenerated GAC</text><rect class="u" x="25" y="327" width="190" height="96" rx="16"/><text class="t" x="120" y="368">M101</text><text class="r" x="120" y="390">Mixer</text><text class="r" x="120" y="408">carbon recycle and makeup</text><rect class="p" x="310" y="327" width="190" height="96" rx="16"/><text class="t" x="405" y="368">CARBON</text><text class="r" x="405" y="390">Feed</text><text class="r" x="405" y="408">fresh GAC makeup</text><rect class="p" x="595" y="327" width="190" height="96" rx="16"/><text class="t" x="690" y="368">PRODUCT</text><text class="r" x="690" y="390">Product</text><text class="r" x="690" y="408">treated water</text><rect class="p" x="880" y="327" width="190" height="96" rx="16"/><text class="t" x="975" y="368">PURGE</text><text class="r" x="975" y="390">Product</text><text class="r" x="975" y="408">spent-carbon purge</text><text class="s" x="24" y="625">Code-derived complete PFD for GAC with Biological Regeneration and Carbon Purge; reconstructed from the executable topology and not an official source figure.</text></svg>