<svg xmlns="http://www.w3.org/2000/svg" width="1450" height="430" viewBox="0 0 1450 430">
<style>.l{stroke:#263b50;stroke-width:4;fill:none}.u{fill:#e8f3fb;stroke:#245c83;stroke-width:3}.m{fill:#e8f7ef;stroke:#28744b;stroke-width:3}.e{fill:#fff0dc;stroke:#a65a00;stroke-width:3}.t{font:700 16px sans-serif;text-anchor:middle;fill:#172533}.s{font:14px sans-serif;fill:#344b60}</style>
<text x="20" y="175" class="s">70 kg/m³ feed</text><path d="M120 170 H180" class="l"/><circle cx="220" cy="170" r="38" class="u"/><text x="220" y="176" class="t">P1</text><path d="M258 170 H320" class="l"/>
<circle cx="365" cy="170" r="44" class="m"/><text x="365" y="176" class="t">M1</text><path d="M409 170 H480" class="l"/>
<rect x="480" y="120" width="125" height="100" rx="14" class="m"/><text x="543" y="164" class="t">RO1</text><text x="543" y="190" class="s" text-anchor="middle">standard RO</text>
<path d="M543 120 V65 H690" class="l"/><text x="685" y="52" text-anchor="end" class="s">product</text><path d="M605 170 H680" class="l"/>
<circle cx="725" cy="170" r="40" class="e"/><text x="725" y="176" class="t">ERD1</text><path d="M765 170 H825" class="l"/><circle cx="865" cy="170" r="38" class="u"/><text x="865" y="176" class="t">P2</text><path d="M903 170 H965" class="l"/>
<rect x="965" y="120" width="125" height="100" rx="14" class="m"/><text x="1028" y="164" class="t">RO2</text><text x="1028" y="190" class="s" text-anchor="middle">LSR stage</text>
<path d="M1090 170 H1160" class="l"/><circle cx="1205" cy="170" r="40" class="e"/><text x="1205" y="176" class="t">ERD2</text><path d="M1245 170 H1410" class="l"/><text x="1405" y="155" text-anchor="end" class="s">brine disposal</text>
<path d="M1028 220 V330 H900" class="l"/><circle cx="855" cy="330" r="40" class="u"/><text x="855" y="336" class="t">BP2</text><path d="M815 330 H365 V214" class="l"/><text x="590" y="318" class="s">stage-2 permeate recycle</text>
<text x="20" y="405" class="s">Two-stage LSRRO: concentrated retentate advances downstream; low-rejection permeate recycles upstream.</text>
</svg>
