<svg xmlns="http://www.w3.org/2000/svg" width="1500" height="430"><style>.a{stroke:#23384d;stroke-width:4;fill:none}.u{fill:#eaf4fb;stroke:#28618a;stroke-width:3}.r{fill:#fff0db;stroke:#a45b09;stroke-width:3}.t{font:700 16px sans-serif;text-anchor:middle}.s{font:14px sans-serif;fill:#334b60}</style><text x="20" y="115" class="s">H₂ + CH₄</text><text x="20" y="235" class="s">CO + CH₄</text><path class="a" d="M100 110H160V170M100 230H160V190"/><circle class="u" cx="190" cy="180" r="38"/><text class="t" x="190" y="186">M101</text><path class="a" d="M228 180H300"/><circle class="u" cx="338" cy="180" r="38"/><text class="t" x="338" y="186">M102</text><path class="a" d="M376 180H430"/><rect class="u" x="430" y="140" width="95" height="80"/><text class="t" x="478" y="186">C101</text><path class="a" d="M525 180H575"/><rect class="u" x="575" y="140" width="95" height="80"/><text class="t" x="623" y="186">H101</text><path class="a" d="M670 180H720"/><rect class="r" x="720" y="130" width="110" height="100"/><text class="t" x="775" y="186">R101</text><path class="a" d="M830 180H880"/><rect class="u" x="880" y="140" width="100" height="80"/><text class="t" x="930" y="186">T101</text><path class="a" d="M980 180H1030"/><rect class="u" x="1030" y="140" width="100" height="80"/><text class="t" x="1080" y="186">H102</text><path class="a" d="M1130 180H1180"/><rect class="u" x="1180" y="130" width="90" height="100" rx="30"/><text class="t" x="1225" y="186">F101</text><path class="a" d="M1225 130V80H1320"/><circle class="u" cx="1360" cy="80" r="38"/><text class="t" x="1360" y="86">S101</text><path class="a" d="M1398 80H1470"/><text class="s" x="1415" y="60">purge</text><path class="a" d="M1360 118V350H338V218"/><text class="s" x="800" y="375">methane-limited vapor recycle</text><path class="a" d="M1225 230V300H1430"/><text class="s" x="1320" y="325">liquid methanol</text><text class="s" x="20" y="410">Code-derived variant PFD; purge is optimized against recycle methane accumulation.</text></svg>