<svg xmlns="http://www.w3.org/2000/svg" width="900" height="1595" viewBox="0 0 900 1595">
  <title>WaterTAP UConn WRRF source-derived topology</title>
  <desc>Generated schematic derived from the official source. It is not a solved IDAES flowsheet visualization.</desc>
  <defs><marker id="arrow" markerWidth="8" markerHeight="8" refX="7" refY="4" orient="auto"><path d="M0,0 L8,4 L0,8 z" fill="#4b6475"/></marker></defs>
  <style>
    svg { background: #f8fafb; font-family: Arial, sans-serif; }
    rect { fill: #ffffff; stroke: #335b6b; stroke-width: 1.5; }
    path { fill: none; stroke: #4b6475; stroke-width: 1.4; marker-end: url(#arrow); }
    text { letter-spacing: 0; }
    .title { fill: #173642; font-size: 20px; font-weight: 700; }
    .note { fill: #52656e; font-size: 12px; }
    .stage { fill: #52656e; font-size: 11px; font-weight: 700; }
    .unit { fill: #173642; font-size: 12px; font-weight: 700; text-anchor: middle; }
    .kind { fill: #60737c; font-size: 10px; text-anchor: middle; }
  </style>
  <text x="24" y="30" class="title">WaterTAP UConn WRRF</text>
  <text x="24" y="51" class="note">Source-derived topology only; SpecIR, DOF closure, solve, and optimization are pending.</text>
  <g><path d="M 245 163 L 245 163 L 245 251 L 245 251" aria-label="feed_to_mixer1"/><path d="M 245 309 L 245 309 L 245 397 L 245 397" aria-label="mixer1_to_r1"/><path d="M 245 455 L 245 455 L 245 689 L 245 689" aria-label="r1_to_mixer2"/><path d="M 245 601 L 245 601 L 245 689 L 245 689" aria-label="r2_to_mixer2"/><path d="M 245 747 L 245 747 L 245 835 L 245 835" aria-label="mixer2_to_r3"/><path d="M 245 893 L 245 893 L 245 981 L 245 981" aria-label="r3_to_r4"/><path d="M 245 1039 L 245 1039 L 245 1127 L 245 1127" aria-label="r4_to_r5"/><path d="M 245 1185 L 245 1185 L 245 1273 L 245 1273" aria-label="r5_to_separator"/><path d="M 245 1331 L 245 1331 L 245 1419 L 245 1419" aria-label="separator_effluent"/><path d="M 245 1331 L 245 1331 L 245 251 L 245 251" aria-label="separator_recycle_to_m1"/><path d="M 245 1331 L 245 1331 L 245 543 L 245 543" aria-label="separator_to_r2"/></g>
  <g><text x="24" y="138" class="stage">Feed</text><text x="24" y="284" class="stage">Headworks</text><text x="24" y="430" class="stage">Biological 1</text><text x="24" y="576" class="stage">Recycle Reactor</text><text x="24" y="722" class="stage">Internal Recycle</text><text x="24" y="868" class="stage">Biological 2</text><text x="24" y="1014" class="stage">Biological 3</text><text x="24" y="1160" class="stage">Biological 4</text><text x="24" y="1306" class="stage">Secondary Separation</text><text x="24" y="1452" class="stage">Products</text><g><rect x="165" y="105" width="160" height="58" rx="5"/><text x="245" y="130" class="unit">feed</text><text x="245" y="149" class="kind">Feed</text></g><g><rect x="165" y="251" width="160" height="58" rx="5"/><text x="245" y="276" class="unit">mixer1</text><text x="245" y="295" class="kind">Mixer</text></g><g><rect x="165" y="397" width="160" height="58" rx="5"/><text x="245" y="422" class="unit">reactor1</text><text x="245" y="441" class="kind">CSTR</text></g><g><rect x="165" y="543" width="160" height="58" rx="5"/><text x="245" y="568" class="unit">reactor2</text><text x="245" y="587" class="kind">CSTR</text></g><g><rect x="165" y="689" width="160" height="58" rx="5"/><text x="245" y="714" class="unit">mixer2</text><text x="245" y="733" class="kind">Mixer</text></g><g><rect x="165" y="835" width="160" height="58" rx="5"/><text x="245" y="860" class="unit">reactor3</text><text x="245" y="879" class="kind">CSTR</text></g><g><rect x="165" y="981" width="160" height="58" rx="5"/><text x="245" y="1006" class="unit">reactor4</text><text x="245" y="1025" class="kind">CSTR</text></g><g><rect x="165" y="1127" width="160" height="58" rx="5"/><text x="245" y="1152" class="unit">reactor5</text><text x="245" y="1171" class="kind">CSTR</text></g><g><rect x="165" y="1273" width="160" height="58" rx="5"/><text x="245" y="1298" class="unit">separator</text><text x="245" y="1317" class="kind">Separator</text></g><g><rect x="165" y="1419" width="160" height="58" rx="5"/><text x="245" y="1444" class="unit">treated</text><text x="245" y="1463" class="kind">Product</text></g></g>
</svg>
