<svg xmlns="http://www.w3.org/2000/svg" width="1120" height="340" viewBox="0 0 1120 340">
<style>.line{stroke:#24364b;stroke-width:4;fill:none} .unit{fill:#e8f2fb;stroke:#245b82;stroke-width:3} .rxn{fill:#fff0db;stroke:#a55a00;stroke-width:3} .sep{fill:#e8f7ef;stroke:#27734b;stroke-width:3} .label{font:700 18px sans-serif;text-anchor:middle;fill:#172533} .small{font:14px sans-serif;fill:#33485c}</style>
<text x="20" y="105" class="small">toluene</text><path d="M90 100 H170 V160" class="line"/>
<text x="20" y="235" class="small">H₂ + CH₄</text><path d="M90 230 H170 V180" class="line"/>
<circle cx="190" cy="170" r="42" class="unit"/><text x="190" y="176" class="label">M101</text>
<path d="M232 170 H320" class="line"/><rect x="320" y="130" width="110" height="80" rx="8" class="unit"/><text x="375" y="176" class="label">H101</text>
<path d="M430 170 H520" class="line"/><rect x="520" y="120" width="120" height="100" rx="12" class="rxn"/><text x="580" y="164" class="label">R101</text><text x="580" y="190" class="small" text-anchor="middle">HDA reactor</text>
<path d="M640 170 H700" class="line"/><rect x="700" y="125" width="60" height="90" rx="26" class="sep"/><text x="730" y="176" class="label">F101</text>
<path d="M730 125 V70 H850" class="line"/><text x="845" y="58" text-anchor="end" class="small">H₂/CH₄ offgas</text>

  <path d="M760 170 H850" class="line"/><rect x="850" y="125" width="120" height="90" rx="28" class="sep"/>
  <text x="910" y="164" class="label">F102</text><text x="910" y="188" class="small">BTX flash</text>
  <path d="M910 125 V70 H1040" class="line"/><text x="1035" y="58" text-anchor="end" class="small">benzene-rich vapor</text>
  <path d="M910 215 V270 H1040" class="line"/><text x="1035" y="292" text-anchor="end" class="small">toluene-rich liquid</text>
<text x="20" y="320" class="small">Once-through topology: no recycle compressor, splitter, or tear stream.</text>
</svg>
