<svg xmlns="http://www.w3.org/2000/svg" width="1600" height="650" viewBox="0 0 1600 650"><defs><marker id="arrow" viewBox="0 0 10 10" refX="9" refY="5" markerWidth="7" markerHeight="7" orient="auto-start-reverse"><path d="M 0 0 L 10 5 L 0 10 z" fill="#31475b"/></marker></defs><style>.u{fill:#eaf4fb;stroke:#28618a;stroke-width:3}.p{fill:#e8f7ef;stroke:#28744b;stroke-width:3}.a{stroke:#31475b;stroke-width:3;fill:none;marker-end:url(#arrow)}.t{font:700 15px sans-serif;text-anchor:middle}.r{font:12px sans-serif;text-anchor:middle;fill:#41576a}.s{font:14px sans-serif;fill:#334b60}</style><path class="a" d="M 215 125 L 310 125"/><text class="r" x="262" y="113">fresh feed</text><path class="a" d="M 500 125 L 595 125"/><text class="r" x="548" y="113">stack feed</text><path class="a" d="M 785 125 L 1165 125"/><text class="r" x="975" y="113">desalted water</text><path class="a" d="M 785 125 L 880 125"/><text class="r" x="832" y="113">salt concentrate</text><path class="a" d="M 1070 125 L 310 125"/><text class="r" x="690" y="113">concentrate recycle</text><path class="a" d="M 975 173 L 975 467 L 120 467 L 120 327"/><text class="r" x="548" y="459">conductivity purge</text><rect class="p" x="25" y="77" width="190" height="96" rx="16"/><text class="t" x="120" y="118">FEED</text><text class="r" x="120" y="140">Feed</text><text class="r" x="120" y="158">brackish feed</text><rect class="u" x="310" y="77" width="190" height="96" rx="16"/><text class="t" x="405" y="118">M101</text><text class="r" x="405" y="140">Mixer</text><text class="r" x="405" y="158">fresh plus recycled concentrat</text><rect class="u" x="595" y="77" width="190" height="96" rx="16"/><text class="t" x="690" y="118">ED101</text><text class="r" x="690" y="140">ElectrodialysisStack</text><text class="r" x="690" y="158">ion transport stack</text><rect class="u" x="880" y="77" width="190" height="96" rx="16"/><text class="t" x="975" y="118">S101</text><text class="r" x="975" y="140">Separator</text><text class="r" x="975" y="158">concentrate recycle and purge</text><rect class="p" x="1165" y="77" width="190" height="96" rx="16"/><text class="t" x="1260" y="118">DILUATE</text><text class="r" x="1260" y="140">Product</text><text class="r" x="1260" y="158">desalted diluate</text><rect class="p" x="25" y="327" width="190" height="96" rx="16"/><text class="t" x="120" y="368">CONC</text><text class="r" x="120" y="390">Product</text><text class="r" x="120" y="408">conductivity-controlled concen</text><text class="s" x="24" y="625">Code-derived complete PFD for Electrodialysis Concentrate Recycle with Conductivity Purge; reconstructed from the executable topology and not an official source figure.</text></svg>