<svg xmlns="http://www.w3.org/2000/svg" width="900" height="865" viewBox="0 0 900 865">
  <title>REFLO KBHDP State-of-the-Art Train source-derived topology</title>
  <desc>Generated schematic derived from the official source. It is not a solved IDAES flowsheet visualization.</desc>
  <defs><marker id="arrow" markerWidth="8" markerHeight="8" refX="7" refY="4" orient="auto"><path d="M0,0 L8,4 L0,8 z" fill="#4b6475"/></marker></defs>
  <style>
    svg { background: #f8fafb; font-family: Arial, sans-serif; }
    rect { fill: #ffffff; stroke: #335b6b; stroke-width: 1.5; }
    path { fill: none; stroke: #4b6475; stroke-width: 1.4; marker-end: url(#arrow); }
    text { letter-spacing: 0; }
    .title { fill: #173642; font-size: 20px; font-weight: 700; }
    .note { fill: #52656e; font-size: 12px; }
    .stage { fill: #52656e; font-size: 11px; font-weight: 700; }
    .unit { fill: #173642; font-size: 12px; font-weight: 700; text-anchor: middle; }
    .kind { fill: #60737c; font-size: 10px; text-anchor: middle; }
  </style>
  <text x="24" y="30" class="title">REFLO KBHDP State-of-the-Art Train</text>
  <text x="24" y="51" class="note">Source-derived topology only; SpecIR, DOF closure, solve, and optimization are pending.</text>
  <g><path d="M 245 163 L 245 163 L 245 251 L 245 251" aria-label="feed_to_softener"/><path d="M 325 280 L 342 280 L 342 280 L 360 280" aria-label="softener_to_uf"/><path d="M 520 280 L 342 280 L 342 426 L 165 426" aria-label="uf_to_ro"/><path d="M 245 455 L 245 455 L 245 689 L 245 689" aria-label="ro_to_product"/><path d="M 245 455 L 245 455 L 245 543 L 245 543" aria-label="ro_to_dwi"/></g>
  <g><text x="24" y="138" class="stage">Feeds</text><text x="24" y="284" class="stage">Pretreatment</text><text x="24" y="430" class="stage">Desalination</text><text x="24" y="576" class="stage">Disposal</text><text x="24" y="722" class="stage">Products</text><g><rect x="165" y="105" width="160" height="58" rx="5"/><text x="245" y="130" class="unit">feed</text><text x="245" y="149" class="kind">Feed</text></g><g><rect x="165" y="251" width="160" height="58" rx="5"/><text x="245" y="276" class="unit">softener</text><text x="245" y="295" class="kind">ChemicalSoftening</text></g><g><rect x="360" y="251" width="160" height="58" rx="5"/><text x="440" y="276" class="unit">uf</text><text x="440" y="295" class="kind">Ultrafiltration</text></g><g><rect x="165" y="397" width="160" height="58" rx="5"/><text x="245" y="422" class="unit">ro</text><text x="245" y="441" class="kind">ReverseOsmosis</text></g><g><rect x="165" y="543" width="160" height="58" rx="5"/><text x="245" y="568" class="unit">dwi</text><text x="245" y="587" class="kind">DeepWellInjection</text></g><g><rect x="165" y="689" width="160" height="58" rx="5"/><text x="245" y="714" class="unit">product</text><text x="245" y="733" class="kind">Product</text></g></g>
</svg>
